<svg width="1921" height="826" viewBox="0 0 1921 826" fill="none" xmlns="http://www.w3.org/2000/svg">
<path fill-rule="evenodd" clip-rule="evenodd" d="M0.860352 654.601L0.860352 262.08L1920.86 253.326L1920.86 770.576C1917.39 769.417 1913.91 768.268 1910.41 767.129L1910.64 766.618L1909.26 766.018C1712 679.923 1424.96 644.015 1057.52 729.326C813.42 786.002 571.641 778.114 378.691 750.2C195.048 723.634 55.7462 678.945 0.860352 654.601ZM1885.19 759.179C1681.13 696.973 1422.99 669.946 1067.53 750.436C566.463 863.896 100.788 725.442 0.860352 678.665L0.860352 657.88C56.9154 682.492 195.801 726.774 378.261 753.169C571.459 781.119 813.632 789.033 1058.2 732.249C1411.14 650.302 1689.55 680.414 1885.19 759.179Z" fill="#D1FCC2"/>
<path d="M1057 706C557.28 833.52 98.4629 685.32 0.859375 638.232L0.859375 0.994202L1920.86 0.994202L1920.86 514.469V810.058C1879.03 745.28 1553.79 579.229 1057 706Z" fill="#B8E8A7"/>
<path fill-rule="evenodd" clip-rule="evenodd" d="M0.862305 703.735C55.7447 728.24 195.048 773.227 378.695 799.971C571.644 828.069 813.422 836.01 1057.52 778.958C1424.98 693.075 1722.24 735.242 1919.49 821.902L1920.86 822.505L1919.65 825.252L1918.28 824.648C1721.7 738.281 1425.11 696.125 1058.2 781.879C813.635 839.041 571.461 831.074 378.262 802.939C195.805 776.369 56.9197 731.793 0.862305 707.018L0.862305 703.735Z" fill="#ECECEC"/>
</svg>
