<svg width="1920" height="978" viewBox="0 0 1920 978" fill="none" xmlns="http://www.w3.org/2000/svg">
<rect y="470" width="1920" height="508" fill="white"/>
<path fill-rule="evenodd" clip-rule="evenodd" d="M0.000976562 653.607L0.000976562 261.085L1920 252.332L1920 769.582C1916.53 768.423 1913.05 767.274 1909.55 766.135L1909.78 765.624L1908.4 765.024C1711.14 678.929 1424.1 643.021 1056.66 728.332C812.56 785.008 570.782 777.119 377.831 749.206C194.189 722.639 54.8868 677.951 0.000976562 653.607ZM1884.34 758.185C1680.27 695.979 1422.13 668.952 1066.67 749.442C565.603 862.902 99.9284 724.448 0.000976562 677.67L0.000976562 656.886C56.056 681.498 194.942 725.78 377.402 752.175C570.599 780.124 812.773 788.039 1057.34 731.254C1410.28 649.308 1688.69 679.42 1884.34 758.185Z" fill="#D1FCC2"/>
<path d="M1056.14 705.006C556.421 832.526 97.6035 684.326 0 637.238L0 0L1920 0L1920 513.475V809.064C1878.17 744.286 1552.93 578.234 1056.14 705.006Z" fill="#B8E8A7"/>
<path fill-rule="evenodd" clip-rule="evenodd" d="M0.00292969 702.741C54.8853 727.246 194.189 772.233 377.835 798.976C570.785 827.075 812.562 835.016 1056.66 777.964C1424.12 692.081 1721.38 734.248 1918.63 820.908L1920 821.511L1918.79 824.258L1917.42 823.654C1720.84 737.287 1424.25 695.131 1057.35 780.885C812.776 838.047 570.602 830.08 377.403 801.945C194.945 775.374 56.0603 730.799 0.00292969 706.024L0.00292969 702.741Z" fill="#ECECEC"/>
</svg>
