<svg width="989" height="1034" viewBox="0 0 989 1034" fill="none" xmlns="http://www.w3.org/2000/svg">
<path d="M883.052 560C1062.23 296.941 843.582 52.4619 769.711 0H111.844L98.0205 1008H914.857C804.27 898 748.422 757.659 883.052 560Z" fill="#D1FCC2"/>
<path fill-rule="evenodd" clip-rule="evenodd" d="M732.949 0C769.829 26.3021 843.94 102.524 886.615 204.911C929.369 307.485 940.553 436.249 851.198 567.437C783.776 666.423 764.187 754.688 778.563 831.556C792.937 908.41 841.23 973.69 909.216 1026.79L910.447 1025.21C842.711 972.31 794.786 907.419 780.529 831.188C766.275 754.971 785.642 667.237 852.851 568.563C942.671 436.692 931.412 307.187 888.462 204.141C846.48 103.42 774.202 27.9108 736.355 0H732.949Z" fill="white"/>
<path d="M812.678 560C991.853 296.941 773.208 52.4619 699.338 0H0V1032H505.182H968.894C867.272 1009.52 678.048 757.659 812.678 560Z" fill="#B8E8A7"/>
<path fill-rule="evenodd" clip-rule="evenodd" d="M785.039 0C823.698 29.0417 894.059 102.164 933.9 201.156C975.489 304.494 983.82 436.013 888.099 575.055C819.887 674.138 809.512 767.055 833.99 846.062C858.195 924.188 916.458 988.647 986.419 1032H988.323C917.902 988.736 859.221 924.12 834.945 845.766C810.568 767.085 820.864 674.483 888.923 575.622C984.864 436.26 976.521 304.379 934.827 200.783C895.274 102.502 825.704 29.669 786.697 0H785.039ZM988.041 1033H988.999L988.738 1033.43C988.506 1033.28 988.274 1033.14 988.041 1033Z" fill="#ECECEC"/>
</svg>
