<svg width="930" height="1079" viewBox="0 0 930 1079" fill="none" xmlns="http://www.w3.org/2000/svg">
<path d="M829.479 584.703C997.785 310.04 792.404 54.7761 723.015 0H105.058L92.0737 1052.47H859.355C755.477 937.613 703.017 791.082 829.479 584.703Z" fill="#D1FCC2"/>
<path fill-rule="evenodd" clip-rule="evenodd" d="M688.491 0C723.154 27.5179 792.696 107.062 832.758 213.9C872.93 321.031 883.436 455.526 799.482 592.534C736.155 695.878 717.771 788.002 731.267 868.212C744.762 948.416 790.108 1016.57 853.979 1072.02L855.29 1070.5C791.674 1015.28 746.639 947.515 733.239 867.88C719.841 788.252 738.051 696.613 801.187 593.579C885.538 455.923 874.963 320.756 834.63 213.197C795.173 107.972 727.213 29.094 691.677 0H688.491Z" fill="white"/>
<path d="M763.375 584.703C931.68 310.04 726.3 54.7761 656.911 0H0V1077.52H474.534H910.114C814.657 1054.05 636.913 791.082 763.375 584.703Z" fill="#B8E8A7"/>
<path fill-rule="evenodd" clip-rule="evenodd" d="M737.417 0C773.736 30.3426 839.797 106.673 877.21 210.005C916.283 317.919 924.107 455.265 834.185 600.455C770.116 703.902 760.377 800.896 783.364 883.364C806.108 964.965 860.879 1032.3 926.653 1077.57H928.421C862.272 1032.4 807.136 964.93 784.327 883.096C761.422 800.919 771.1 704.212 835.035 600.981C925.146 455.487 917.308 317.813 878.151 209.665C840.987 107.022 775.608 30.9592 738.971 0H737.417ZM928.113 1078.57H929.001L928.721 1078.98C928.618 1078.91 928.515 1078.84 928.412 1078.77L928.113 1078.57Z" fill="#ECECEC"/>
</svg>
